<?xml version="1.0" encoding="utf-8"?>
<!-- Generator: Adobe Illustrator 24.0.1, SVG Export Plug-In . SVG Version: 6.00 Build 0)  -->
<svg version="1.1" xmlns="http://www.w3.org/2000/svg" xmlns:xlink="http://www.w3.org/1999/xlink" x="0px" y="0px"
	 viewBox="0 0 209 48" style="enable-background:new 0 0 209 48;" xml:space="preserve">
<style type="text/css">
	.st0{fill:#251A08;}
</style>
<g id="Layer_4">
</g>
<g id="Copy_of_Copy_of_Copy_of_Layer_5">
</g>
<g id="Layer_5">
	<g>
		<path class="st0" d="M41.26,30.41c-0.72-0.66-1.52-1.25-2.4-1.73c-0.87-0.48-1.79-0.89-2.73-1.22c-0.95-0.33-1.88-0.62-2.74-0.84
			c-1.44-0.4-2.92-0.74-4.4-0.99c-1.47-0.25-2.95-0.48-4.42-0.7c-1.46-0.21-2.93-0.44-4.4-0.7c-1.44-0.25-2.89-0.56-4.31-0.93
			c-1.42-0.37-2.87-0.88-4.31-1.54c-1.41-0.64-2.63-1.44-3.61-2.39c-0.96-0.92-1.62-2.05-1.97-3.35c-0.35-1.28-0.19-2.82,0.47-4.57
			c0.45-1.17,1.18-2.22,2.18-3.12c1.03-0.92,2.25-1.73,3.62-2.41c1.39-0.69,2.9-1.26,4.49-1.7c1.61-0.45,3.24-0.82,4.85-1.1
			c1.61-0.28,3.18-0.49,4.65-0.62c1.48-0.12,2.8-0.21,3.91-0.26c2.29-0.05,3.6-0.06,4.9,0.02c0.64,0.04,1.31,0.1,2,0.19
			c0.53,0.07,1.16,0.14,1.89,0.23c-0.24,0.09-0.54,0.2-0.93,0.32l-0.11,0.04L37.8,3.12c-0.33,0.33-0.32,0.66-0.29,0.83
			c0.06,0.29,0.3,0.59,0.79,0.59l0.2-0.04c0.18-0.08,0.5-0.22,0.96-0.44c0.48-0.23,0.9-0.48,1.25-0.76
			c0.44-0.35,0.66-0.73,0.66-1.12c0-0.81-1.1-0.93-1.46-0.97c-1.03-0.13-1.9-0.24-2.63-0.34c-0.74-0.1-1.44-0.18-2.11-0.25
			c-0.67-0.06-1.41-0.1-2.19-0.11c-0.77-0.01-1.71-0.01-2.83,0.02c-1.47,0.05-2.98,0.13-4.49,0.25c-1.52,0.11-3.06,0.3-4.59,0.55
			c-1.52,0.25-3.03,0.59-4.5,0.99c-1.48,0.41-2.92,0.94-4.26,1.56c-1.32,0.49-2.53,1.13-3.6,1.91c-1.08,0.78-2,1.69-2.75,2.71
			c-0.75,1.03-1.3,2.18-1.64,3.44c-0.34,1.26-0.44,2.63-0.28,4.07c0.19,1.6,0.78,3,1.75,4.15c0.95,1.12,2.13,2.09,3.5,2.88
			c1.36,0.78,2.89,1.43,4.54,1.91c1.63,0.48,3.29,0.88,4.93,1.2c1.63,0.31,3.21,0.58,4.7,0.78c1.47,0.2,2.74,0.4,3.78,0.6
			c0.96,0.18,1.91,0.35,2.85,0.51c0.92,0.16,1.85,0.38,2.77,0.65c0.67,0.17,1.44,0.4,2.31,0.67c0.86,0.27,1.69,0.61,2.49,1.01
			c0.79,0.39,1.51,0.87,2.16,1.42c0.6,0.51,1.02,1.12,1.25,1.82c0.12,0.34,0.13,0.68,0.04,1.05c-0.1,0.42-0.27,0.83-0.51,1.24
			c-0.24,0.42-0.55,0.82-0.91,1.21c-0.3,0.32-0.61,0.63-0.92,0.91c-3.18-0.52-6.37-0.82-9.5-0.9c-3.15-0.07-6.38,0.04-9.61,0.34
			c-0.37,0.05-0.88,0.1-1.51,0.17c-0.65,0.06-1.32,0.15-2,0.25c-0.7,0.1-1.36,0.24-1.96,0.41c-0.68,0.19-1.16,0.42-1.49,0.76
			c-0.56,0.71-0.8,1.42-0.73,2.1c0.07,0.65,0.34,1.25,0.8,1.78c0.42,0.49,0.97,0.93,1.62,1.31c0.63,0.37,1.27,0.66,1.95,0.88
			c2.08,0.46,4.05,0.71,5.86,0.75c0.18,0,0.36,0.01,0.54,0.01c1.62,0,3.23-0.16,4.77-0.47c1.71-0.34,3.43-0.88,5.13-1.59
			c1.67-0.71,3.46-1.59,5.31-2.63c0.5-0.29,1.11-0.75,1.83-1.35c0.71-0.61,1.37-1.3,1.95-2.05c0.59-0.77,1.05-1.56,1.35-2.37
			c0.34-0.89,0.33-1.74-0.03-2.52C42.59,31.92,41.99,31.09,41.26,30.41z M27.49,43.36c-1.54,0.28-3.12,0.43-4.7,0.44
			c-1.56,0-3.14-0.14-4.64-0.44c-1.48-0.3-2.8-0.81-3.9-1.48c-0.14-0.1-0.28-0.23-0.41-0.4c-0.12-0.15-0.21-0.31-0.27-0.48
			c-0.05-0.15-0.03-0.25-0.01-0.31c0.02-0.05,0.1-0.13,0.32-0.22c0.52-0.26,1.04-0.46,1.55-0.61c0.52-0.14,1.04-0.25,1.55-0.33
			c0.53-0.07,1.07-0.14,1.62-0.19c0.56-0.05,1.14-0.11,1.74-0.19v-0.02c2.87-0.26,5.71-0.37,8.48-0.37
			c2.68,0.01,5.42,0.21,8.16,0.58c-0.01,0-0.02,0.01-0.02,0.01c-0.88,0.5-1.77,1.02-2.66,1.55c-0.87,0.51-1.77,0.96-2.7,1.32
			C30.4,42.7,29.02,43.08,27.49,43.36z"/>
		<path class="st0" d="M45.75,26.42c0.73-0.16,1.44-0.38,2.11-0.67c0.64-0.28,1.29-0.55,1.92-0.82c0.44-0.17,0.65-0.55,0.53-0.98
			c-0.13-0.43-0.52-0.65-0.95-0.54c-0.55,0.1-1.22,0.23-1.99,0.38c-0.52,0.1-1.02,0.22-1.52,0.34c0.06-0.52,0.12-0.99,0.17-1.43
			c0.08-0.65,0.13-1.15,0.15-1.51l0.01-0.09l-0.02-0.08c-0.15-0.53-0.54-0.63-0.7-0.64s-0.57,0.01-0.81,0.54l-0.03,0.12
			c-0.05,0.31-0.09,0.63-0.12,0.94c-0.02,0.29-0.06,0.58-0.11,0.86c-0.02,0.15-0.07,0.41-0.15,0.78l-0.21,1.04
			c-0.18,0.07-0.34,0.13-0.5,0.19c-0.26,0.1-0.46,0.2-0.57,0.26c-0.45,0.23-0.51,0.62-0.42,0.89c0.08,0.23,0.24,0.42,0.46,0.56
			l0.12,0.07h0.33c0.1,0,0.2-0.01,0.28-0.04c-0.08,0.66-0.14,1.35-0.18,2.08c-0.05,0.99-0.01,1.91,0.14,2.73
			c0.15,0.87,0.45,1.6,0.88,2.19c0.49,0.66,1.2,0.99,2.15,0.99c0,0,0,0,0.01,0c0.35-0.03,0.7-0.04,1.06-0.05
			c0.36-0.01,0.71-0.02,1.06-0.02c0.47,0,0.8-0.31,0.8-0.76c0-0.43-0.29-0.74-0.73-0.8c-0.36-0.06-0.74-0.07-1.11-0.04
			c-0.27,0.02-0.55-0.01-0.81-0.09c-0.35-0.11-0.62-0.34-0.83-0.71c-0.23-0.43-0.41-0.96-0.51-1.58c-0.11-0.64-0.16-1.35-0.14-2.11
			c0.01-0.64,0.04-1.3,0.09-1.96C45.67,26.45,45.71,26.43,45.75,26.42z"/>
		<path class="st0" d="M58.09,31.59c0.03-0.55-0.02-1.04-0.16-1.44c-0.12-0.36-0.41-0.83-1.16-1.03c-0.52-0.14-1.36-0.05-2.64,0.29
			l-1.24,0.36c-0.27,0.08-0.5,0.11-0.72,0.08c0.01-0.08,0.03-0.18,0.09-0.31c0.14-0.29,0.35-0.57,0.64-0.84
			c0.31-0.29,0.68-0.55,1.08-0.78c0.4-0.23,0.8-0.4,1.18-0.5c0.34-0.09,0.66-0.1,0.94-0.04c0.21,0.05,0.34,0.17,0.43,0.37l0.07,0.11
			c0.23,0.29,0.58,0.39,0.93,0.28c0.4-0.14,0.59-0.52,0.47-0.95l-0.02-0.05c-0.25-0.62-0.66-1.06-1.21-1.31
			c-0.51-0.22-1.08-0.31-1.7-0.25c-0.59,0.06-1.21,0.23-1.84,0.51c-0.62,0.28-1.18,0.64-1.67,1.06c-0.5,0.43-0.89,0.91-1.18,1.44
			c-0.32,0.57-0.43,1.16-0.34,1.75c0.1,0.6,0.35,1.03,0.74,1.27c0.65,0.4,1.52,0.41,2.55,0.11c0.45-0.13,0.88-0.26,1.3-0.4
			c0.4-0.13,0.77-0.24,1.11-0.33c0.36-0.09,0.53-0.07,0.52-0.08c0,0,0.04,0.03,0.08,0.15c0.08,0.22,0.15,0.46,0.21,0.74
			c0.06,0.29,0.12,0.59,0.17,0.89c0.06,0.38,0.18,0.68,0.37,0.96c0.18,0.21,0.4,0.32,0.63,0.32c0.14,0,0.28-0.04,0.42-0.13
			c0.35-0.22,0.46-0.61,0.26-1.07C58.17,32.37,58.07,31.99,58.09,31.59z"/>
		<path class="st0" d="M61.97,33.24c-0.12-0.75-0.18-1.49-0.18-2.22c0-0.7,0.1-1.4,0.3-2.06c0.2-0.66,0.52-1.32,0.97-1.97
			c0.45-0.65,1.07-1.31,1.9-2.02c0.27-0.32,0.29-0.73,0.06-1.05c-0.16-0.22-0.36-0.29-0.5-0.31c-0.14-0.02-0.36,0-0.57,0.18
			c-1.06,0.75-1.92,1.53-2.53,2.3c-0.33,0.42-0.62,0.86-0.86,1.32c-0.03-0.07-0.06-0.13-0.09-0.2c-0.22-0.47-0.49-0.93-0.85-1.41
			c-0.28-0.28-0.63-0.35-0.96-0.19c-0.13,0.06-0.54,0.33-0.37,0.96l0.07,0.15c0.34,0.53,0.62,1.25,0.84,2.16
			c0.22,0.94,0.4,1.9,0.51,2.77c0,0.35,0.02,0.69,0.06,1.04c0.04,0.33,0.08,0.67,0.13,1.03l0.06,0.18c0.23,0.39,0.56,0.6,0.94,0.6
			c0.11,0,0.22-0.02,0.34-0.05C61.74,34.3,62.02,33.87,61.97,33.24z"/>
		<path class="st0" d="M94.12,19.38c-0.55-0.62-1.27-1.16-2.12-1.58c-0.74-0.4-1.61-0.69-2.56-0.86c-0.93-0.17-1.9-0.26-2.9-0.29
			c-0.94-0.02-1.91,0.01-2.88,0.1c0.81-0.39,1.59-0.81,2.33-1.27c0.82-0.51,1.57-1.1,2.25-1.76c0.69-0.68,1.26-1.5,1.68-2.43
			c0.24-0.51,0.24-1.05,0.01-1.59c-0.2-0.47-0.49-0.91-0.87-1.3c-0.37-0.38-0.78-0.71-1.22-1c-0.45-0.28-0.8-0.48-1.09-0.59
			c-1.71-0.66-3.62-1.15-5.67-1.46c-1.88-0.28-3.72-0.29-5.49-0.04c-0.02-0.21-0.03-0.42-0.04-0.63c-0.01-0.39-0.03-0.81-0.06-1.28
			l-0.04-0.24l-0.09-0.09c-0.14-0.25-0.38-0.4-0.68-0.4l-0.32,0.04l-0.15,0.15l-0.17,0.2c-0.09,0.18-0.13,0.32-0.13,0.42
			c-0.04,0.72-0.05,1.44-0.02,2.14c-0.01,0-0.02,0-0.03,0.01c-0.11-0.04-0.21-0.05-0.29-0.05C73.45,5.59,73.22,5.65,73,5.9l0,0
			l-0.16,0.19v0.13c-0.11,0.42,0.09,0.8,0.5,0.95c0.2,0.08,0.41,0.11,0.66,0.11c0.07,1.04,0.14,2.06,0.21,3.08
			c0.09,1.16,0.13,2.36,0.13,3.54c-0.03,1.71-0.07,3.58-0.13,5.63c-0.06,2.05-0.13,4.14-0.21,6.27c-0.08,2.14-0.15,4.23-0.21,6.28
			c-0.06,1.89-0.1,3.62-0.12,5.2c-1.72,0.31-3.48,0.47-5.24,0.42c-1.91-0.04-4.03-0.31-6.28-0.8c-0.3-0.08-0.51,0-0.63,0.08
			c-0.12,0.08-0.28,0.23-0.33,0.52c-0.09,0.45,0.15,0.82,0.62,0.94c2.31,0.56,4.48,0.87,6.45,0.94c1.78,0.05,3.6-0.06,5.41-0.34
			v0.99c0,0.46,0.28,0.79,0.71,0.82c0.02,0,0.04,0,0.06,0c0.31,0,0.66-0.17,0.78-0.66l0.02-0.12c0-0.29,0.01-0.58,0.02-0.86
			c0.01-0.16,0.02-0.33,0.03-0.5c1.64-0.36,3.31-0.8,4.97-1.31c1.79-0.54,3.5-1.23,5.11-2.05c1.61-0.82,3.12-1.82,4.49-2.96
			c1.38-1.16,2.57-2.56,3.55-4.16c0.8-1.31,1.35-2.52,1.64-3.6c0.29-1.1,0.36-2.09,0.2-2.96C95.07,20.8,94.7,20.03,94.12,19.38z
			 M86.35,32.41c-1.31,0.81-2.66,1.54-4.01,2.16s-2.71,1.14-4.03,1.56c-1.06,0.34-2.04,0.61-2.91,0.82l0.3-4.85
			c0.13-2.03,0.24-4.09,0.34-6.19c0.1-2.1,0.19-4.16,0.26-6.19c0.07-2.01,0.1-3.87,0.08-5.55v0c-0.03-1.29-0.11-2.57-0.25-3.81
			c-0.12-1.08-0.24-2.18-0.35-3.3c0.11-0.03,0.22-0.06,0.32-0.1c1.65-0.05,3.4-0.08,5.11,0.11c0.85,0.1,1.69,0.26,2.49,0.48
			c0.79,0.21,1.55,0.52,2.27,0.9c0.91,0.47,2,1.21,2.06,2.08c0.05,0.69-0.57,1.52-1.78,2.39c-0.63,0.46-1.3,0.87-2,1.22
			c-0.73,0.36-1.45,0.72-2.17,1.07c-0.86,0.4-1.7,0.8-2.55,1.21c-0.85,0.41-1.7,0.87-2.58,1.43c-0.48,0.43-0.47,0.9-0.42,1.14
			c0.04,0.17,0.16,0.52,0.59,0.68v0.12h0.5l0.28-0.04l0.02-0.02c1.01-0.12,1.97-0.25,2.87-0.4c0.91-0.15,1.84-0.27,2.76-0.37
			c0.9-0.1,1.83-0.13,2.77-0.09c0.93,0.04,1.99,0.18,3.15,0.43c0.4,0.07,0.86,0.19,1.36,0.36c0.49,0.16,0.95,0.38,1.37,0.63
			c0.39,0.24,0.71,0.54,0.96,0.89c0.23,0.33,0.33,0.71,0.31,1.18c-0.07,1.43-0.43,2.76-1.07,3.95c-0.65,1.22-1.5,2.35-2.53,3.37
			C88.82,30.67,87.64,31.6,86.35,32.41z"/>
		<path class="st0" d="M101.03,26.17c-0.15-0.53-0.54-0.62-0.7-0.64c-0.13-0.01-0.57-0.01-0.81,0.54l-0.04,0.15
			c-0.02,0.28-0.07,0.71-0.13,1.31c-0.06,0.59-0.16,1.2-0.28,1.82c-0.12,0.61-0.28,1.17-0.47,1.67c-0.08,0.2-0.15,0.35-0.21,0.44
			c-0.4-0.41-0.65-0.89-0.75-1.43c-0.15-0.77-0.26-1.51-0.35-2.27c-0.11-0.43-0.43-0.68-0.86-0.66c-0.44,0.03-0.73,0.35-0.73,0.89
			c0,1.06,0.09,2.04,0.27,2.93c0.2,0.96,0.74,1.85,1.62,2.64l0.15,0.09c0.1,0.04,0.18,0.07,0.23,0.1c0.1,0.05,0.2,0.07,0.31,0.07
			c0.11,0,0.23-0.02,0.35-0.05c0.72-0.27,1.26-0.75,1.62-1.42c0.33-0.61,0.55-1.3,0.67-2.04c0.12-0.72,0.16-1.46,0.14-2.21
			c-0.02-0.71-0.04-1.31-0.04-1.81L101.03,26.17z"/>
		<path class="st0" d="M115.77,32.61l-4.67-1.16l-0.06-0.08c0.21-0.37,0.44-0.69,0.67-0.96c0.32-0.35,0.62-0.71,0.93-1.06
			c0.31-0.36,0.61-0.76,0.87-1.17c0.28-0.43,0.51-0.97,0.7-1.6c0.05-0.16,0.11-0.33,0.16-0.51c0.11-0.38,0-0.65-0.12-0.81
			c-0.25-0.57-1.04-0.71-1.62-0.75c-0.75-0.06-1.98-0.13-3.77-0.21l-0.05,0l-0.05,0.01c-0.38,0.06-0.63,0.34-0.66,0.71
			c-0.03,0.39,0.2,0.71,0.61,0.82l0.06,0.01c0.51,0.08,1.04,0.14,1.56,0.17c0.47,0.03,0.95,0.12,1.42,0.26
			c0.1,0.03,0.14,0.07,0.16,0.09c0.04,0.06,0.09,0.11,0.14,0.16c-0.09,0.2-0.2,0.39-0.31,0.57c-0.16,0.24-0.33,0.48-0.5,0.72l0,0
			c-0.04,0.04-0.08,0.09-0.12,0.15c-0.06,0.06-0.11,0.13-0.16,0.22c-0.28,0.33-0.5,0.57-0.65,0.74c-0.17,0.18-0.32,0.35-0.44,0.5
			c-0.14,0.17-0.26,0.37-0.38,0.6l-0.48,0.97c-0.08,0.25-0.09,0.51-0.01,0.79l0.08,0.16l-0.25,0.5l-4.05-1.01l-0.06-0.08
			c0.21-0.37,0.44-0.69,0.67-0.96c0.32-0.35,0.62-0.71,0.93-1.06c0.32-0.37,0.61-0.76,0.87-1.17c0.28-0.43,0.51-0.97,0.7-1.6
			c0.05-0.16,0.1-0.33,0.16-0.51c0.11-0.38,0-0.64-0.12-0.8c-0.25-0.57-1.04-0.71-1.62-0.75c-0.75-0.06-1.98-0.13-3.77-0.21l-0.05,0
			l-0.05,0.01c-0.38,0.06-0.63,0.34-0.66,0.71c-0.03,0.39,0.2,0.71,0.61,0.82l0.06,0.01c0.51,0.08,1.04,0.14,1.56,0.17
			c0.47,0.03,0.95,0.12,1.42,0.26c0.1,0.03,0.14,0.07,0.16,0.09c0.04,0.06,0.09,0.11,0.14,0.16c-0.09,0.2-0.2,0.39-0.31,0.57
			c-0.16,0.24-0.33,0.48-0.5,0.72l0,0c-0.03,0.03-0.08,0.08-0.12,0.15c-0.06,0.06-0.12,0.13-0.16,0.22
			c-0.28,0.33-0.5,0.57-0.65,0.74c-0.17,0.18-0.32,0.35-0.44,0.5c-0.14,0.17-0.26,0.37-0.38,0.6l-0.48,0.97
			c-0.08,0.25-0.09,0.51-0.01,0.79l0.08,0.16l-0.26,0.51l0.33-0.42c0.35,0.41,0.73,0.75,1.14,1c0.43,0.26,0.92,0.47,1.46,0.6
			c0.51,0.13,1.08,0.23,1.67,0.3c0.58,0.06,1.24,0.12,2.01,0.17c0.42,0,0.73-0.25,0.79-0.64c0.06-0.37-0.11-0.69-0.46-0.87
			l-0.61-0.15l0.32-0.41c0.35,0.41,0.73,0.75,1.14,1c0.43,0.26,0.92,0.47,1.46,0.6c0.51,0.13,1.08,0.23,1.67,0.3
			c0.58,0.06,1.24,0.12,2.01,0.17c0.42,0,0.73-0.25,0.79-0.64C116.3,33.11,116.12,32.78,115.77,32.61z"/>
		<path class="st0" d="M145.95,31.38c-0.14-0.06-0.37-0.09-0.65,0.07c-1.03,0.59-2.22,1.15-3.55,1.66c-1.32,0.51-2.71,0.9-4.11,1.16
			c-1.4,0.26-2.81,0.34-4.19,0.26c-1.35-0.08-2.62-0.45-3.78-1.09c-0.94-0.52-1.78-1.26-2.5-2.2c-0.73-0.96-1.37-2.07-1.88-3.3
			c-0.51-1.23-0.92-2.56-1.2-3.94c-0.28-1.38-0.43-2.76-0.44-4.11c-0.01-1.34,0.1-2.64,0.35-3.85c0.24-1.2,0.61-2.25,1.11-3.13
			c0.55-0.98,1.24-1.85,2.07-2.59c0.84-0.75,1.74-1.42,2.69-1.98c1.24-0.73,2.53-1.29,3.84-1.67c1.33-0.38,2.64-0.65,3.9-0.81
			c1.26-0.16,2.47-0.22,3.58-0.18c1.12,0.04,2.12,0.11,2.97,0.2c0.84,0.1,1.5,0.21,1.98,0.34c0.12,0.03,0.21,0.06,0.28,0.08
			l-0.68,3.39l1.69-3.45l0.1-0.23l-0.03-0.06l0.19-0.97l-0.36-0.17c-0.7-0.32-1.71-0.59-3.09-0.81c-1.34-0.22-2.88-0.3-4.56-0.25
			c-1.68,0.05-3.5,0.3-5.39,0.73c-1.91,0.44-3.78,1.16-5.55,2.17c-0.69,0.41-1.28,0.79-1.75,1.14c-0.48,0.35-0.93,0.73-1.32,1.12
			c-0.39,0.39-0.78,0.83-1.14,1.31c-0.35,0.46-0.76,0.99-1.24,1.59c-0.7,0.88-1.2,1.99-1.49,3.29c-0.28,1.26-0.42,2.63-0.41,4.07
			c0.01,1.43,0.17,2.92,0.48,4.43c0.31,1.5,0.73,2.96,1.25,4.32c0.53,1.38,1.17,2.63,1.9,3.73c0.74,1.12,1.56,2.02,2.44,2.69
			c1.35,0.98,2.87,1.57,4.53,1.77c0.67,0.08,1.36,0.12,2.04,0.12c0.96,0,1.93-0.08,2.9-0.24c1.64-0.27,3.27-0.7,4.83-1.29
			c1.54-0.58,2.94-1.2,4.11-1.81c0.45-0.17,0.65-0.58,0.51-1.03C146.28,31.57,146.09,31.44,145.95,31.38z"/>
		<path class="st0" d="M184.86,33.9c-0.63-1.2-1.61-2.17-2.89-2.89c-0.8-0.45-1.6-0.76-2.39-0.92c-0.08-0.01-0.15-0.03-0.23-0.04
			c0.19-0.09,0.39-0.18,0.58-0.28c0.42-0.21,0.87-0.46,1.37-0.72c0.49-0.27,1.07-0.59,1.73-0.97l0.1-0.08
			c0.27-0.28,0.34-0.62,0.19-0.96c-0.16-0.36-0.54-0.52-0.95-0.41l-0.1,0.04c-0.74,0.4-1.48,0.84-2.25,1.31
			c-0.72,0.44-1.47,0.8-2.23,1.06c-0.36,0.12-0.66,0.21-0.9,0.27c-0.24,0.06-0.46,0.11-0.64,0.15c-0.18,0.04-0.35,0.07-0.52,0.09
			c-0.01,0-0.02,0-0.03,0l0.24-3.25c0.17-0.13,0.33-0.27,0.5-0.4c0.23-0.19,0.45-0.39,0.64-0.59c1.42-1.32,2.55-2.55,3.36-3.65
			c0.83-1.14,1.37-2.32,1.6-3.52c0.23-1.2,0.16-2.49-0.2-3.84c-0.34-1.3-0.96-2.84-1.83-4.59l-1-1.92
			c-0.38-0.74-0.95-1.32-1.75-1.78c-0.44-0.18-0.89-0.07-1.25,0.3l-0.08,0.1c-0.21,0.36-0.38,0.89-0.51,1.63
			c-0.13,0.69-0.24,1.48-0.35,2.37c-0.1,0.88-0.18,1.83-0.25,2.83c-0.06,0.99-0.12,1.95-0.17,2.87c-0.05,0.92-0.1,1.75-0.15,2.5
			c-0.05,0.75-0.09,1.33-0.11,1.71c-0.1,0.93-0.19,1.85-0.26,2.76l-0.21,2.46c-1.34,0.77-2.55,1.1-3.51,0.99
			c-0.12-0.04-0.27-0.06-0.48-0.08l-0.51-0.04c-0.13-0.01-0.24-0.03-0.34-0.05L169,26.26c-0.28-0.28-0.63-0.35-0.96-0.19
			c-0.13,0.06-0.53,0.32-0.37,0.97l0.07,0.15c0.06,0.09,0.14,0.15,0.21,0.22c-0.32,0.19-0.64,0.36-0.96,0.56
			c-0.72,0.44-1.47,0.8-2.23,1.06c-0.36,0.12-0.66,0.21-0.9,0.27c-0.24,0.06-0.46,0.11-0.64,0.15c-0.18,0.04-0.35,0.07-0.52,0.09
			c-0.01,0-0.02,0-0.03,0l0.24-3.25c0.17-0.13,0.33-0.27,0.5-0.4c0.22-0.19,0.44-0.39,0.64-0.58c1.42-1.32,2.55-2.55,3.36-3.65
			c0.83-1.14,1.37-2.32,1.59-3.52c0.23-1.2,0.16-2.49-0.2-3.84c-0.35-1.31-0.96-2.85-1.83-4.59l-1-1.92
			c-0.38-0.74-0.95-1.32-1.75-1.78c-0.44-0.17-0.89-0.07-1.25,0.3l-0.08,0.1c-0.21,0.35-0.38,0.89-0.51,1.63
			c-0.13,0.68-0.24,1.46-0.35,2.37c-0.1,0.87-0.18,1.82-0.25,2.83c-0.06,0.99-0.12,1.95-0.17,2.87c-0.05,0.92-0.1,1.75-0.15,2.5
			l-0.11,1.71c-0.1,0.93-0.19,1.85-0.27,2.76l-0.2,2.46c-1.32,0.76-2.53,1.09-3.57,0.98c-0.11-0.03-0.24-0.05-0.42-0.06l-0.51-0.04
			c-0.13-0.01-0.24-0.03-0.34-0.05l-0.09-0.13c-0.26-0.26-0.58-0.33-0.89-0.21c-0.24-0.13-0.5-0.23-0.77-0.27
			c-0.57-0.08-1.21-0.09-1.89-0.04c-0.39,0.03-0.81,0.07-1.26,0.14c-0.47,0.07-0.93,0.18-1.38,0.32c-0.45,0.15-0.88,0.32-1.29,0.52
			c-0.44,0.21-0.83,0.49-1.17,0.83c-0.59,0.59-0.96,1.2-1.1,1.81c-0.14,0.63-0.07,1.21,0.2,1.72c0.26,0.49,0.68,0.89,1.26,1.21
			c0.54,0.29,1.19,0.48,1.95,0.57c0.22,0.02,0.45,0.03,0.69,0.03c0.48,0,0.99-0.04,1.54-0.1c0.81-0.1,1.52-0.23,2.11-0.39
			c0.42-0.11,0.76-0.21,1.01-0.3c0.26-0.1,0.48-0.19,0.67-0.29c0.19-0.1,0.38-0.23,0.58-0.39c0.17-0.14,0.41-0.32,0.71-0.54
			l0.09-0.09c0.15-0.19,0.25-0.39,0.3-0.69c0-0.08-0.01-0.26-0.02-0.53c-0.02-0.38-0.11-0.66-0.27-0.86
			c-0.21-0.27-0.55-0.51-1.06-0.74c-0.01-0.01-0.03-0.01-0.04-0.02c0,0,0-0.01,0.01-0.01c0.19,0.05,0.38,0.1,0.58,0.13
			c0.93,0.16,1.82,0.16,2.65,0c0.53-0.1,1.06-0.27,1.58-0.49c-0.02,0.33-0.05,0.66-0.07,0.98c-0.04,0.55-0.08,1.12-0.12,1.69
			c-0.13,0.22-0.14,0.48-0.02,0.72c-0.02,0.26-0.04,0.51-0.04,0.78c-0.01,0.32-0.02,0.63-0.02,0.93c-0.02,0.85-0.02,1.62,0.02,2.29
			c0.04,0.67,0.09,1.34,0.17,1.99c0.08,0.65,0.17,1.31,0.29,1.98c0.11,0.67,0.25,1.39,0.4,2.19c0.13,0.62,0.35,1.22,0.65,1.78
			c0.27,0.52,0.53,1.05,0.77,1.58c0.24,0.57,0.63,1.04,1.16,1.39c0.43,0.29,0.83,0.6,1.18,0.93c0.5,0.47,1.05,0.7,1.64,0.7
			c0.54,0,1.06-0.12,1.56-0.37c0.47-0.23,0.91-0.54,1.32-0.91c0.4-0.36,0.72-0.71,0.97-1.03c0.79-1.05,1.39-2.25,1.79-3.56
			c0.41-1.32,0.57-2.65,0.49-3.96c-0.08-1.32-0.43-2.59-1.06-3.76c-0.63-1.2-1.61-2.17-2.89-2.89c-0.8-0.45-1.6-0.76-2.39-0.92
			c-0.08-0.01-0.15-0.03-0.23-0.04c0.19-0.09,0.39-0.18,0.58-0.28c0.42-0.21,0.87-0.45,1.37-0.72c0.48-0.26,1.03-0.57,1.67-0.93
			c0.79,0.1,1.55,0.09,2.26-0.05c0.53-0.1,1.06-0.27,1.58-0.49c-0.02,0.33-0.05,0.66-0.07,0.99c-0.03,0.55-0.08,1.12-0.12,1.69
			c-0.13,0.22-0.14,0.48-0.02,0.72c-0.02,0.25-0.03,0.51-0.04,0.78c-0.01,0.32-0.02,0.63-0.02,0.93c-0.03,0.84-0.02,1.61,0.02,2.29
			c0.04,0.67,0.1,1.34,0.17,1.99c0.08,0.65,0.17,1.31,0.29,1.98c0.11,0.67,0.25,1.39,0.4,2.19c0.13,0.62,0.35,1.22,0.65,1.78
			c0.27,0.52,0.53,1.05,0.77,1.58c0.24,0.57,0.63,1.04,1.16,1.39c0.43,0.29,0.83,0.6,1.18,0.93c0.5,0.47,1.05,0.7,1.64,0.7
			c0.54,0,1.06-0.12,1.56-0.37c0.47-0.23,0.91-0.54,1.32-0.91c0.4-0.36,0.73-0.71,0.97-1.03c0.78-1.05,1.39-2.25,1.79-3.56
			c0.4-1.32,0.57-2.65,0.49-3.96C185.84,36.34,185.48,35.07,184.86,33.9z M179.41,45.21c-0.57-0.21-1.19-0.81-1.83-1.77
			c-0.28-0.41-0.51-0.86-0.68-1.33c-0.18-0.49-0.35-0.98-0.49-1.46c-0.34-1.24-0.56-2.54-0.64-3.88c-0.09-1.35-0.13-2.69-0.13-3.98
			v-1.31c0.88,0.01,1.75,0.05,2.57,0.11c0.91,0.07,1.83,0.38,2.74,0.91l0.01,0c0.81,0.46,1.44,1.03,1.89,1.69
			c0.45,0.67,0.77,1.41,0.94,2.19c0.18,0.79,0.22,1.62,0.14,2.48c-0.08,0.87-0.27,1.74-0.56,2.58c-0.29,0.83-0.65,1.61-1.1,2.3
			c-0.42,0.65-0.88,1.12-1.38,1.39C180.43,45.39,179.95,45.41,179.41,45.21z M177.31,9.16c0-0.11,0.01-0.21,0.01-0.31
			c0.06,0.1,0.12,0.2,0.17,0.3c0.24,0.47,0.48,0.94,0.74,1.42c0.83,1.55,1.43,2.92,1.77,4.09c0.33,1.13,0.41,2.19,0.25,3.17
			c-0.16,0.97-0.6,1.96-1.29,2.94c-0.68,0.96-1.63,2-2.83,3.13c0.03-0.35,0.06-0.7,0.1-1.04l0.23-2.3v0
			c0.15-1.67,0.27-3.37,0.36-5.05c0.09-1.65,0.22-3.33,0.39-4.95C177.26,10.18,177.29,9.73,177.31,9.16z M170.88,38.87
			c-0.08,0.87-0.27,1.74-0.56,2.58c-0.29,0.84-0.66,1.61-1.1,2.3c-0.42,0.65-0.88,1.12-1.38,1.39c-0.45,0.24-0.93,0.26-1.47,0.07
			c-0.57-0.21-1.19-0.81-1.83-1.77c-0.28-0.41-0.51-0.86-0.68-1.33c-0.18-0.49-0.35-0.98-0.49-1.47c-0.34-1.24-0.56-2.54-0.64-3.88
			c-0.09-1.35-0.13-2.69-0.13-3.98v-1.31c0.88,0.01,1.75,0.05,2.57,0.11c0.91,0.07,1.83,0.38,2.74,0.91l0.01,0
			c0.81,0.46,1.44,1.03,1.89,1.69c0.45,0.67,0.77,1.41,0.94,2.19C170.92,37.17,170.96,38.01,170.88,38.87z M164.27,9.16
			c0-0.11,0.01-0.21,0.01-0.31c0.06,0.1,0.12,0.2,0.17,0.3c0.24,0.47,0.49,0.94,0.74,1.42c0.83,1.55,1.43,2.92,1.77,4.09
			c0.33,1.13,0.41,2.19,0.25,3.17c-0.16,0.98-0.6,1.97-1.29,2.94c-0.68,0.95-1.62,2-2.83,3.13c0.03-0.35,0.06-0.7,0.1-1.04l0.23-2.3
			v0c0.15-1.67,0.27-3.37,0.36-5.05c0.09-1.64,0.22-3.31,0.39-4.95C164.22,10.18,164.25,9.72,164.27,9.16z M148.26,30.08
			c-0.01-0.12-0.03-0.23-0.06-0.35c-0.02-0.07-0.01-0.1,0.01-0.13c0.11-0.33,0.46-0.68,1.02-1.01c0.55-0.33,1.16-0.6,1.82-0.8
			c0.08,0.25,0.28,0.44,0.55,0.5c0.73,0.25,1.43,0.5,2.11,0.73c0.51,0.18,1.02,0.41,1.52,0.67c-0.39,0.23-0.83,0.43-1.34,0.61
			c-0.69,0.25-1.42,0.42-2.15,0.5c-0.72,0.08-1.43,0.06-2.09-0.07C149.1,30.63,148.64,30.42,148.26,30.08z"/>
		<path class="st0" d="M205,30.88c-0.13-0.43-0.52-0.65-1.02-0.52l-2.26,0.79c-0.22,0.07-0.56,0.17-1.04,0.29
			c-0.46,0.12-0.94,0.2-1.41,0.25c-0.45,0.04-0.85,0.02-1.21-0.06c-0.27-0.06-0.3-0.18-0.32-0.32c-0.05-0.27,0-0.59,0.14-0.94
			c0.65-0.22,1.26-0.47,1.82-0.75c0.64-0.32,1.14-0.62,1.51-0.92c0.11-0.09,0.27-0.22,0.46-0.42s0.38-0.42,0.54-0.67
			c0.17-0.26,0.29-0.54,0.35-0.82c0.08-0.35,0.02-0.7-0.19-1.03c-0.22-0.33-0.51-0.54-0.88-0.64c-0.31-0.08-0.64-0.09-0.97-0.03
			c-0.31,0.06-0.61,0.17-0.89,0.31c-0.28,0.15-0.52,0.32-0.69,0.49c-0.37,0.34-0.79,0.79-1.25,1.35c-0.43,0.51-0.81,1.07-1.13,1.65
			c-0.55,0.16-1.1,0.27-1.64,0.34c-0.5,0.06-0.9,0-1.22-0.21c-0.35-0.17-0.72-0.11-0.97,0.17c-0.25,0.29-0.27,0.66-0.04,1l0.11,0.12
			c0.08,0.06,0.17,0.11,0.26,0.17l-1.88,0.66c-0.22,0.07-0.56,0.17-1.04,0.29c-0.46,0.12-0.94,0.2-1.41,0.25
			c-0.44,0.04-0.85,0.02-1.21-0.06c-0.27-0.06-0.3-0.18-0.32-0.32c-0.05-0.27,0-0.59,0.14-0.94c0.64-0.22,1.25-0.47,1.81-0.75
			c0.64-0.32,1.14-0.62,1.51-0.92c0.11-0.09,0.27-0.22,0.46-0.42c0.2-0.2,0.38-0.42,0.54-0.67c0.17-0.26,0.29-0.54,0.35-0.82
			c0.08-0.35,0.02-0.7-0.19-1.03c-0.22-0.33-0.51-0.54-0.87-0.64c-0.31-0.08-0.64-0.09-0.97-0.03c-0.31,0.06-0.61,0.17-0.89,0.31
			c-0.28,0.15-0.52,0.32-0.69,0.49c-0.37,0.34-0.78,0.78-1.25,1.35c-0.43,0.51-0.81,1.07-1.13,1.65c-0.55,0.16-1.1,0.27-1.64,0.34
			c-0.51,0.06-0.9,0-1.22-0.21c-0.35-0.18-0.73-0.11-0.97,0.17c-0.25,0.29-0.27,0.66-0.04,1l0.11,0.12c0.51,0.39,1.11,0.6,1.79,0.63
			c0.38,0.02,0.77,0,1.17-0.05c-0.03,0.16-0.05,0.32-0.05,0.48c-0.02,0.45,0.09,0.86,0.3,1.2c0.22,0.36,0.59,0.63,1.09,0.81
			c0.45,0.16,1.01,0.23,1.75,0.23c0,0,0.01,0,0.01,0c0.46-0.03,0.91-0.09,1.35-0.2c0.42-0.1,0.84-0.22,1.29-0.36
			c0.5-0.2,1-0.4,1.49-0.6c0.49-0.2,0.98-0.4,1.47-0.6c0.43-0.16,0.63-0.52,0.54-0.93c0.04,0,0.09,0.01,0.13,0.02
			c0.38,0.02,0.77,0,1.17-0.05c-0.03,0.16-0.05,0.32-0.05,0.48c-0.02,0.45,0.09,0.86,0.3,1.2c0.22,0.36,0.59,0.64,1.09,0.81
			c0.45,0.16,1.01,0.23,1.75,0.23c0,0,0.01,0,0.01,0c0.46-0.03,0.91-0.09,1.35-0.2c0.42-0.1,0.84-0.22,1.29-0.36
			c0.5-0.2,1-0.4,1.49-0.6c0.49-0.2,0.98-0.4,1.47-0.6C204.92,31.7,205.12,31.32,205,30.88z"/>
	</g>
</g>
<g id="Copy_of_Copy_of_Layer_5">
</g>
</svg>
