<?xml version="1.0" encoding="utf-8"?>
<!-- Generator: Adobe Illustrator 24.0.1, SVG Export Plug-In . SVG Version: 6.00 Build 0)  -->
<svg version="1.1" xmlns="http://www.w3.org/2000/svg" xmlns:xlink="http://www.w3.org/1999/xlink" x="0px" y="0px"
	 viewBox="0 0 209 48" style="enable-background:new 0 0 209 48;" xml:space="preserve">
<style type="text/css">
	.st0{fill:#251A08;stroke:#251A08;stroke-width:0.5284;stroke-miterlimit:10;}
</style>
<g id="Layer_4">
</g>
<g id="Copy_of_Copy_of_Copy_of_Layer_5">
</g>
<g id="Layer_5">
	
		<text transform="matrix(1 0 0 1 -926.5076 -73.0828)" style="fill:#694C3D;stroke:#694C3D;stroke-width:0.917;stroke-miterlimit:10; font-family:'SweetlyBroken'; font-size:68.2426px;">Star Buzz Coffee</text>
	<g>
		<path class="st0" d="M35.42,3.17c-0.18,0-0.29-0.07-0.31-0.2c-0.03-0.13,0.03-0.26,0.16-0.39c1.13-0.37,1.81-0.65,2.04-0.87
			c0.24-0.21,0.1-0.34-0.39-0.39c-1.1-0.13-2.02-0.24-2.75-0.33c-0.73-0.09-1.44-0.16-2.12-0.2c-0.68-0.04-1.41-0.06-2.18-0.06
			c-0.77,0-1.76,0.01-2.97,0.04c-1.18,0.05-2.55,0.14-4.11,0.28c-1.56,0.13-3.19,0.35-4.9,0.65c-1.7,0.3-3.41,0.69-5.11,1.16
			c-1.7,0.47-3.3,1.08-4.78,1.81C6.51,5.4,5.22,6.27,4.1,7.26c-1.11,1-1.92,2.15-2.42,3.46c-0.73,1.94-0.9,3.64-0.51,5.09
			c0.39,1.46,1.13,2.7,2.2,3.74c1.07,1.04,2.38,1.9,3.91,2.6c1.53,0.69,3.06,1.24,4.58,1.63c1.49,0.39,3.01,0.72,4.54,0.98
			c1.53,0.26,3.07,0.51,4.6,0.73c1.53,0.22,3.07,0.47,4.6,0.73c1.53,0.26,3.05,0.6,4.54,1.02c0.92,0.24,1.86,0.52,2.83,0.86
			c0.97,0.34,1.89,0.75,2.77,1.24c0.88,0.49,1.68,1.06,2.4,1.73c0.72,0.67,1.3,1.47,1.75,2.42c0.31,0.68,0.32,1.42,0.02,2.22
			c-0.3,0.8-0.75,1.58-1.34,2.34c-0.59,0.76-1.25,1.45-1.97,2.06c-0.72,0.62-1.33,1.07-1.83,1.36c-1.91,1.07-3.74,1.98-5.49,2.71
			c-1.74,0.73-3.49,1.28-5.25,1.63c-1.76,0.35-3.57,0.51-5.43,0.47c-1.86-0.04-3.87-0.29-6.02-0.77c-0.63-0.21-1.26-0.5-1.89-0.86
			c-0.63-0.37-1.15-0.79-1.55-1.26c-0.41-0.47-0.64-1-0.71-1.57c-0.07-0.58,0.15-1.18,0.65-1.81c0.24-0.24,0.66-0.44,1.28-0.61
			c0.62-0.17,1.28-0.31,1.99-0.41c0.71-0.11,1.4-0.19,2.06-0.26c0.67-0.07,1.2-0.12,1.59-0.18c3.36-0.31,6.67-0.43,9.95-0.35
			c3.28,0.08,6.58,0.39,9.91,0.94c0.03,0,0.06,0.03,0.12,0.08c0.42-0.37,0.83-0.77,1.24-1.2c0.41-0.43,0.75-0.89,1.02-1.36
			c0.28-0.47,0.47-0.95,0.59-1.44c0.12-0.49,0.1-0.95-0.06-1.4c-0.26-0.81-0.75-1.52-1.45-2.12c-0.71-0.6-1.49-1.12-2.36-1.55
			c-0.86-0.43-1.76-0.79-2.67-1.08c-0.92-0.29-1.73-0.52-2.44-0.71c-0.97-0.29-1.95-0.52-2.93-0.69c-0.98-0.17-1.97-0.35-2.97-0.53
			c-1.1-0.21-2.43-0.42-3.97-0.63c-1.55-0.21-3.17-0.48-4.88-0.81c-1.7-0.33-3.4-0.74-5.09-1.24c-1.69-0.5-3.23-1.15-4.62-1.95
			c-1.39-0.8-2.56-1.76-3.52-2.89c-0.96-1.13-1.53-2.48-1.71-4.05c-0.16-1.44-0.07-2.79,0.28-4.05c0.34-1.26,0.88-2.4,1.63-3.42
			C2.84,7.1,3.76,6.2,4.85,5.41c1.09-0.79,2.3-1.43,3.64-1.93c1.42-0.65,2.88-1.19,4.4-1.61c1.52-0.42,3.07-0.76,4.64-1.02
			c1.57-0.26,3.15-0.45,4.74-0.57c1.59-0.12,3.14-0.2,4.66-0.26c1.15-0.03,2.13-0.03,2.93-0.02c0.8,0.01,1.55,0.05,2.24,0.12
			c0.69,0.07,1.42,0.15,2.18,0.26c0.76,0.1,1.68,0.22,2.75,0.35c0.71,0.08,1.06,0.24,1.06,0.49c0,0.25-0.16,0.51-0.49,0.77
			c-0.33,0.26-0.73,0.51-1.2,0.73C35.93,2.94,35.6,3.09,35.42,3.17z M34.28,40.49c0.18-0.1,0.37-0.22,0.57-0.35s0.4-0.28,0.61-0.43
			c-3.36-0.53-6.67-0.79-9.93-0.81c-3.26-0.01-6.59,0.15-9.97,0.49c0.05,0,0.15-0.01,0.3-0.02c0.14-0.01,0.28-0.03,0.41-0.04
			c0.13-0.01,0.24-0.02,0.33-0.02c0.09,0,0.1,0,0.02,0c-0.63,0.08-1.23,0.14-1.81,0.2c-0.58,0.05-1.15,0.12-1.71,0.2
			c-0.56,0.08-1.13,0.2-1.69,0.35c-0.56,0.16-1.13,0.38-1.71,0.67c-0.31,0.13-0.51,0.3-0.59,0.51c-0.08,0.21-0.08,0.43,0,0.67
			c0.08,0.24,0.2,0.46,0.37,0.67c0.17,0.21,0.35,0.38,0.53,0.51c1.23,0.76,2.65,1.3,4.27,1.63c1.61,0.33,3.26,0.48,4.95,0.47
			c1.69-0.01,3.36-0.17,4.99-0.47c1.64-0.3,3.1-0.7,4.38-1.2c1-0.39,1.96-0.86,2.89-1.42C32.44,41.55,33.36,41.01,34.28,40.49z"/>
		<path class="st0" d="M42.54,20.99c0.08-0.18,0.18-0.27,0.31-0.26c0.13,0.01,0.22,0.11,0.28,0.29c-0.03,0.37-0.08,0.89-0.16,1.55
			c-0.08,0.67-0.17,1.42-0.28,2.26c0.73-0.21,1.5-0.39,2.3-0.55c0.8-0.16,1.49-0.29,2.06-0.39c0.21-0.05,0.34,0.01,0.39,0.2
			c0.05,0.18-0.03,0.31-0.24,0.39c-0.68,0.29-1.36,0.58-2.03,0.86c-0.67,0.29-1.37,0.51-2.1,0.67c-0.11,0.03-0.2,0.05-0.28,0.06
			c-0.08,0.01-0.16,0.02-0.24,0.02c-0.08,0.84-0.12,1.67-0.14,2.5c-0.01,0.83,0.04,1.59,0.16,2.3c0.12,0.71,0.31,1.31,0.59,1.81
			s0.66,0.83,1.16,0.98c0.34,0.1,0.69,0.14,1.04,0.12c0.35-0.03,0.7-0.01,1.04,0.04c0.21,0.03,0.31,0.13,0.31,0.32
			c0,0.18-0.11,0.28-0.31,0.28c-0.37,0-0.74,0.01-1.12,0.02c-0.38,0.01-0.75,0.03-1.12,0.06c-0.79,0-1.38-0.28-1.79-0.83
			c-0.41-0.55-0.68-1.24-0.83-2.06c-0.14-0.83-0.19-1.74-0.14-2.73c0.05-1,0.14-1.93,0.28-2.79c-0.13,0-0.25,0.01-0.35,0.02
			c-0.1,0.01-0.22,0.03-0.35,0.06c-0.05,0.03-0.12,0.04-0.2,0.04h-0.2c-0.13-0.08-0.22-0.18-0.26-0.29
			c-0.04-0.12,0.02-0.22,0.18-0.3c0.13-0.08,0.31-0.16,0.55-0.26c0.24-0.09,0.5-0.19,0.79-0.29c0.1-0.52,0.2-0.98,0.28-1.38
			c0.08-0.39,0.13-0.67,0.16-0.83c0.05-0.31,0.09-0.63,0.12-0.94C42.45,21.61,42.49,21.3,42.54,20.99z"/>
		<path class="st0" d="M55.48,27.47c0.05,0.18,0,0.3-0.16,0.35c-0.16,0.05-0.29,0.01-0.39-0.12c-0.16-0.37-0.43-0.6-0.81-0.69
			c-0.38-0.09-0.79-0.08-1.24,0.04c-0.45,0.12-0.9,0.31-1.36,0.57c-0.46,0.26-0.87,0.56-1.22,0.89c-0.35,0.33-0.62,0.68-0.79,1.04
			c-0.17,0.37-0.19,0.69-0.06,0.98c0.39,0.13,0.84,0.12,1.34-0.02c0.5-0.14,0.93-0.27,1.3-0.37c1.21-0.31,2.03-0.41,2.48-0.29
			c0.45,0.12,0.73,0.36,0.85,0.73c0.12,0.37,0.16,0.81,0.14,1.32c-0.03,0.51,0.1,1.02,0.39,1.51c0.08,0.18,0.05,0.32-0.1,0.41
			c-0.14,0.09-0.28,0.06-0.41-0.1c-0.13-0.18-0.22-0.43-0.28-0.75c-0.05-0.31-0.11-0.63-0.18-0.94c-0.07-0.31-0.14-0.6-0.24-0.85
			c-0.09-0.25-0.22-0.4-0.37-0.45c-0.21-0.05-0.5-0.03-0.86,0.06c-0.37,0.09-0.77,0.21-1.2,0.35c-0.43,0.14-0.88,0.28-1.34,0.41
			c-0.46,0.13-0.88,0.2-1.26,0.2c-0.38,0-0.71-0.08-0.98-0.26c-0.28-0.17-0.45-0.49-0.53-0.96c-0.08-0.5,0.02-1,0.29-1.49
			c0.28-0.5,0.65-0.95,1.12-1.36c0.47-0.41,1.01-0.75,1.61-1.02c0.6-0.28,1.19-0.44,1.75-0.49c0.56-0.05,1.07,0.02,1.51,0.22
			C54.94,26.59,55.27,26.95,55.48,27.47z"/>
		<path class="st0" d="M56.77,26.57c-0.05-0.21-0.01-0.35,0.12-0.41c0.13-0.07,0.26-0.03,0.39,0.1c0.31,0.42,0.58,0.86,0.79,1.32
			c0.21,0.46,0.38,0.95,0.51,1.47c0.29-0.92,0.74-1.76,1.36-2.54c0.62-0.77,1.46-1.54,2.54-2.3c0.16-0.13,0.29-0.12,0.39,0.02
			c0.1,0.14,0.09,0.29-0.04,0.45c-0.84,0.71-1.51,1.42-2.01,2.14c-0.5,0.72-0.86,1.45-1.08,2.2c-0.22,0.75-0.33,1.51-0.33,2.3
			c0,0.79,0.07,1.59,0.2,2.4c0.03,0.37-0.11,0.6-0.41,0.69c-0.3,0.09-0.54-0.02-0.73-0.33c-0.05-0.37-0.1-0.72-0.14-1.06
			c-0.04-0.34-0.06-0.68-0.06-1.02c-0.13-1-0.31-2-0.55-3.01C57.48,27.98,57.17,27.17,56.77,26.57z"/>
		<path class="st0" d="M72.03,5.45c0.16-0.18,0.31-0.2,0.47-0.04c0.1-0.05,0.21-0.08,0.31-0.1c0.1-0.01,0.21-0.03,0.31-0.06
			c-0.05-0.86-0.05-1.74,0-2.63c0-0.05,0.03-0.13,0.08-0.24l0.08-0.08h0.04c0.03,0,0.05-0.01,0.08-0.04h0.04
			c0.1,0,0.18,0.07,0.24,0.2l0.04,0.04v0.08c0.03,0.45,0.05,0.87,0.06,1.28c0.01,0.41,0.05,0.82,0.1,1.24
			c1.97-0.34,4-0.35,6.11-0.04c2.11,0.31,4.04,0.81,5.8,1.49c0.26,0.11,0.61,0.3,1.04,0.57c0.43,0.28,0.83,0.6,1.18,0.96
			c0.35,0.37,0.62,0.77,0.81,1.2c0.18,0.43,0.18,0.85,0,1.24c-0.42,0.92-0.97,1.71-1.65,2.38c-0.68,0.67-1.44,1.26-2.26,1.77
			c-0.83,0.51-1.7,0.98-2.63,1.42c-0.93,0.43-1.84,0.86-2.73,1.28c1-0.16,2.03-0.29,3.09-0.39c1.06-0.1,2.1-0.14,3.13-0.12
			c1.02,0.03,2.01,0.12,2.95,0.29c0.94,0.17,1.78,0.45,2.52,0.85c0.84,0.42,1.53,0.93,2.06,1.53c0.54,0.6,0.88,1.32,1.04,2.14
			c0.16,0.83,0.09,1.78-0.2,2.85c-0.29,1.08-0.84,2.28-1.65,3.62c-1,1.63-2.2,3.03-3.6,4.21c-1.4,1.18-2.93,2.19-4.58,3.03
			c-1.65,0.84-3.4,1.54-5.25,2.1c-1.85,0.56-3.69,1.04-5.52,1.44c-0.03,0.31-0.05,0.62-0.06,0.92c-0.01,0.3-0.02,0.61-0.02,0.92
			c-0.05,0.21-0.16,0.31-0.33,0.3c-0.17-0.01-0.26-0.12-0.26-0.33v-1.65c-2.07,0.37-4.12,0.52-6.15,0.45
			c-2.03-0.07-4.24-0.39-6.63-0.96c-0.21-0.05-0.29-0.18-0.26-0.37c0.04-0.2,0.16-0.27,0.37-0.22c2.41,0.52,4.63,0.81,6.67,0.85
			c2.03,0.04,4.03-0.14,6-0.53c0.03-1.76,0.07-3.7,0.14-5.84c0.06-2.14,0.14-4.32,0.22-6.55c0.08-2.23,0.15-4.41,0.22-6.55
			c0.07-2.14,0.11-4.1,0.14-5.88c0-1.26-0.05-2.5-0.14-3.74C73.33,8.51,73.25,7.26,73.17,6c-0.18,0.03-0.36,0.04-0.53,0.04
			c-0.17,0-0.32-0.03-0.45-0.08c-0.21-0.08-0.28-0.22-0.2-0.43C71.99,5.51,72,5.48,72.03,5.45z M74.63,13.75
			c0.03,1.73,0,3.65-0.08,5.76c-0.08,2.11-0.17,4.26-0.28,6.45c-0.1,2.19-0.22,4.34-0.35,6.45c-0.13,2.11-0.25,4.03-0.35,5.76
			c1.1-0.24,2.35-0.58,3.76-1.02c1.4-0.45,2.82-1,4.27-1.65c1.44-0.66,2.86-1.42,4.25-2.28c1.39-0.86,2.64-1.85,3.76-2.95
			c1.11-1.1,2.03-2.31,2.73-3.64c0.71-1.32,1.1-2.77,1.18-4.34c0.03-0.6-0.11-1.12-0.41-1.55c-0.3-0.43-0.69-0.79-1.16-1.08
			c-0.47-0.29-0.98-0.52-1.53-0.71s-1.05-0.31-1.49-0.39c-1.23-0.26-2.35-0.41-3.36-0.45c-1.01-0.04-2-0.01-2.97,0.1
			c-0.97,0.11-1.94,0.24-2.91,0.39c-0.97,0.16-2.02,0.3-3.15,0.43c-0.03,0.03-0.05,0.04-0.08,0.04v-0.04
			c-0.37,0-0.58-0.12-0.63-0.37c-0.05-0.25,0.04-0.48,0.28-0.69c0.84-0.52,1.7-1,2.58-1.42c0.88-0.42,1.76-0.84,2.65-1.26
			c0.76-0.37,1.52-0.74,2.28-1.12c0.76-0.38,1.48-0.82,2.16-1.32c2.88-2.07,2.77-3.92-0.35-5.54c-0.79-0.42-1.61-0.75-2.48-0.98
			c-0.86-0.24-1.76-0.41-2.67-0.51c-0.92-0.1-1.84-0.16-2.77-0.16c-0.93,0-1.84,0.01-2.73,0.04c-0.24,0.1-0.5,0.17-0.79,0.2
			c0.13,1.34,0.27,2.65,0.41,3.93C74.51,11.1,74.6,12.41,74.63,13.75z"/>
		<path class="st0" d="M97.67,33.61c-0.84-0.76-1.35-1.59-1.53-2.48c-0.18-0.89-0.28-1.87-0.28-2.95V28.1
			c0-0.21,0.09-0.32,0.28-0.33c0.18-0.01,0.3,0.09,0.35,0.29c0.08,0.73,0.2,1.51,0.35,2.34c0.16,0.83,0.59,1.53,1.3,2.1
			c0.26-0.1,0.5-0.43,0.71-0.98c0.21-0.55,0.38-1.16,0.51-1.83c0.13-0.67,0.23-1.32,0.29-1.95c0.07-0.63,0.11-1.09,0.14-1.38
			c0.08-0.18,0.18-0.27,0.32-0.26c0.13,0.01,0.22,0.11,0.27,0.29c0,0.53,0.01,1.16,0.04,1.91c0.03,0.75-0.02,1.48-0.14,2.2
			s-0.33,1.38-0.65,1.97c-0.31,0.59-0.79,1-1.41,1.24c-0.13,0.03-0.22,0.03-0.28,0C97.89,33.7,97.8,33.66,97.67,33.61z"/>
		<path class="st0" d="M102.43,25.43c-0.18-0.05-0.27-0.16-0.26-0.31c0.01-0.16,0.1-0.25,0.26-0.28c1.83,0.08,3.14,0.15,3.91,0.22
			c0.77,0.07,1.2,0.24,1.28,0.53c0.1,0.1,0.13,0.25,0.08,0.43c-0.05,0.18-0.11,0.35-0.16,0.51c-0.18,0.63-0.41,1.15-0.67,1.55
			c-0.26,0.41-0.55,0.79-0.86,1.16c-0.31,0.37-0.64,0.73-0.96,1.1c-0.33,0.37-0.64,0.83-0.92,1.38l0.35,0.51l4.95,1.22
			c0.16,0.08,0.22,0.2,0.2,0.35c-0.03,0.16-0.13,0.24-0.31,0.24c-0.76-0.05-1.44-0.11-2.04-0.18c-0.6-0.07-1.16-0.16-1.67-0.29
			c-0.51-0.13-0.97-0.32-1.38-0.57c-0.41-0.25-0.78-0.58-1.12-1c-0.05-0.18-0.05-0.35,0-0.51c0.21-0.42,0.37-0.73,0.47-0.94
			c0.1-0.21,0.22-0.39,0.33-0.53c0.12-0.14,0.26-0.31,0.43-0.49s0.41-0.46,0.73-0.83l0.24-0.31c-0.05,0.05-0.08,0.09-0.08,0.12
			c0.24-0.31,0.46-0.63,0.67-0.94c0.21-0.31,0.38-0.65,0.51-1.02c-0.13-0.1-0.25-0.22-0.35-0.35c-0.11-0.13-0.25-0.22-0.43-0.28
			c-0.52-0.16-1.06-0.26-1.59-0.29C103.48,25.57,102.95,25.51,102.43,25.43z M105.06,28.69c0.05-0.1,0.1-0.17,0.16-0.2L105.06,28.69
			z"/>
		<path class="st0" d="M109.03,25.43c-0.18-0.05-0.27-0.16-0.26-0.31c0.01-0.16,0.1-0.25,0.26-0.28c1.83,0.08,3.14,0.15,3.91,0.22
			c0.77,0.07,1.2,0.24,1.28,0.53c0.1,0.1,0.13,0.25,0.08,0.43c-0.05,0.18-0.11,0.35-0.16,0.51c-0.18,0.63-0.41,1.15-0.67,1.55
			c-0.26,0.41-0.55,0.79-0.86,1.16c-0.31,0.37-0.64,0.73-0.96,1.1c-0.33,0.37-0.64,0.83-0.92,1.38l0.35,0.51l4.95,1.22
			c0.16,0.08,0.22,0.2,0.2,0.35c-0.03,0.16-0.13,0.24-0.31,0.24c-0.76-0.05-1.44-0.11-2.04-0.18c-0.6-0.07-1.16-0.16-1.67-0.29
			c-0.51-0.13-0.97-0.32-1.38-0.57c-0.41-0.25-0.78-0.58-1.12-1c-0.05-0.18-0.05-0.35,0-0.51c0.21-0.42,0.37-0.73,0.47-0.94
			c0.1-0.21,0.22-0.39,0.33-0.53c0.12-0.14,0.26-0.31,0.43-0.49s0.41-0.46,0.73-0.83l0.24-0.31c-0.05,0.05-0.08,0.09-0.08,0.12
			c0.24-0.31,0.46-0.63,0.67-0.94c0.21-0.31,0.38-0.65,0.51-1.02c-0.13-0.1-0.25-0.22-0.35-0.35c-0.11-0.13-0.25-0.22-0.43-0.28
			c-0.52-0.16-1.06-0.26-1.59-0.29C110.09,25.57,109.56,25.51,109.03,25.43z M111.67,28.69c0.05-0.1,0.1-0.17,0.16-0.2L111.67,28.69
			z"/>
		<path class="st0" d="M148.83,5.26c0.03-0.05-0.22-0.15-0.75-0.29c-0.52-0.14-1.24-0.27-2.14-0.37c-0.9-0.1-1.95-0.18-3.15-0.22
			c-1.19-0.04-2.46,0.03-3.81,0.2c-1.35,0.17-2.73,0.46-4.15,0.87c-1.42,0.41-2.79,1-4.13,1.79c-1.02,0.6-1.99,1.31-2.89,2.12
			c-0.9,0.81-1.66,1.76-2.26,2.83c-0.55,0.97-0.96,2.11-1.22,3.42c-0.26,1.31-0.39,2.69-0.37,4.13c0.01,1.44,0.17,2.9,0.47,4.38
			c0.3,1.48,0.73,2.88,1.28,4.21c0.55,1.32,1.23,2.51,2.03,3.56c0.8,1.05,1.72,1.86,2.77,2.44c1.28,0.71,2.67,1.11,4.17,1.2
			c1.49,0.09,2.99,0,4.5-0.28c1.51-0.28,2.97-0.69,4.38-1.24c1.42-0.55,2.67-1.14,3.78-1.77c0.18-0.1,0.31-0.05,0.37,0.16
			c0.07,0.21-0.01,0.35-0.22,0.43c-1.26,0.65-2.69,1.28-4.29,1.89c-1.6,0.6-3.24,1.04-4.93,1.32s-3.36,0.31-5.01,0.12
			c-1.65-0.2-3.15-0.78-4.48-1.75c-0.86-0.66-1.67-1.55-2.42-2.67c-0.75-1.13-1.39-2.39-1.93-3.79c-0.54-1.4-0.96-2.88-1.28-4.42
			c-0.31-1.55-0.48-3.05-0.49-4.52c-0.01-1.47,0.12-2.84,0.41-4.13c0.29-1.28,0.77-2.36,1.46-3.22c0.5-0.63,0.93-1.19,1.3-1.67
			c0.37-0.48,0.75-0.92,1.14-1.32c0.39-0.39,0.83-0.77,1.32-1.12c0.49-0.35,1.08-0.74,1.79-1.16c1.81-1.02,3.69-1.76,5.64-2.2
			c1.95-0.45,3.79-0.69,5.52-0.75c1.73-0.05,3.28,0.03,4.66,0.26c1.38,0.22,2.41,0.49,3.09,0.81L148.83,5.26z"/>
		<path class="st0" d="M157.83,27.36c0.08,0.18,0.05,0.32-0.1,0.41c-0.14,0.09-0.28,0.06-0.41-0.1c-0.31-0.42-0.86-0.64-1.63-0.65
			c-0.77-0.01-1.59,0.1-2.44,0.33c-0.85,0.24-1.63,0.56-2.34,0.98c-0.71,0.42-1.14,0.87-1.3,1.34c-0.05,0.13-0.06,0.28-0.02,0.43
			c0.04,0.16,0.06,0.31,0.06,0.47c0.5,0.5,1.12,0.82,1.87,0.96c0.75,0.14,1.53,0.17,2.34,0.08c0.81-0.09,1.6-0.28,2.36-0.55
			c0.76-0.28,1.4-0.6,1.93-0.96c0-0.18-0.01-0.31-0.04-0.39c-0.68-0.39-1.38-0.71-2.08-0.96c-0.71-0.25-1.44-0.5-2.2-0.77
			c-0.21-0.05-0.29-0.18-0.26-0.37c0.04-0.2,0.16-0.27,0.37-0.22c0.24,0.08,0.6,0.17,1.08,0.28c0.48,0.11,0.99,0.24,1.51,0.39
			c0.52,0.16,1.01,0.33,1.46,0.53c0.45,0.2,0.75,0.4,0.9,0.61c0.1,0.13,0.16,0.33,0.18,0.61c0.01,0.28,0.02,0.45,0.02,0.53
			c-0.03,0.13-0.09,0.26-0.2,0.39c-0.31,0.24-0.56,0.43-0.75,0.57c-0.18,0.14-0.36,0.26-0.53,0.35c-0.17,0.09-0.38,0.18-0.63,0.28
			c-0.25,0.09-0.58,0.19-1,0.29c-0.6,0.16-1.32,0.29-2.14,0.39c-0.83,0.11-1.57,0.13-2.22,0.08c-0.71-0.08-1.32-0.26-1.83-0.53
			c-0.51-0.28-0.88-0.62-1.1-1.04c-0.22-0.42-0.28-0.9-0.16-1.44c0.12-0.54,0.45-1.08,1-1.63c0.31-0.31,0.67-0.57,1.08-0.77
			c0.41-0.2,0.83-0.37,1.28-0.51c0.45-0.14,0.9-0.25,1.36-0.31c0.46-0.07,0.88-0.11,1.28-0.14c0.68-0.05,1.3-0.04,1.87,0.04
			C156.96,26.45,157.44,26.78,157.83,27.36z"/>
		<path class="st0" d="M157.32,27.04c-0.05-0.21-0.01-0.35,0.12-0.41c0.13-0.06,0.26-0.03,0.39,0.1c0.05,0.11,0.15,0.18,0.29,0.24
			c0.14,0.05,0.31,0.09,0.49,0.1c0.18,0.01,0.36,0.03,0.53,0.04c0.17,0.01,0.29,0.03,0.37,0.06c1.28,0.16,2.73-0.25,4.33-1.22
			c0.08-0.94,0.16-1.89,0.24-2.83c0.08-0.94,0.17-1.9,0.28-2.87c0.03-0.42,0.07-1.02,0.12-1.81c0.05-0.79,0.1-1.66,0.16-2.61
			c0.05-0.96,0.11-1.95,0.18-2.99c0.07-1.04,0.15-2.01,0.26-2.93c0.1-0.92,0.22-1.73,0.35-2.44c0.13-0.71,0.29-1.22,0.47-1.53
			c0.24-0.24,0.48-0.3,0.75-0.2c0.68,0.39,1.2,0.93,1.55,1.61c0.35,0.68,0.7,1.35,1.04,2.01c0.89,1.78,1.51,3.34,1.87,4.68
			s0.42,2.6,0.2,3.77c-0.22,1.18-0.75,2.33-1.57,3.46c-0.83,1.13-1.97,2.37-3.44,3.74c-0.21,0.21-0.43,0.41-0.65,0.59
			c-0.22,0.18-0.45,0.37-0.69,0.55c-0.05,0.71-0.1,1.42-0.16,2.12c-0.05,0.71-0.11,1.42-0.16,2.12c0.26-0.03,0.49-0.05,0.67-0.08
			c0.18-0.03,0.37-0.06,0.57-0.1c0.2-0.04,0.43-0.09,0.69-0.16c0.26-0.07,0.59-0.16,0.98-0.29c0.84-0.29,1.65-0.67,2.44-1.16
			c0.79-0.48,1.56-0.94,2.32-1.36c0.18-0.05,0.31-0.01,0.37,0.14c0.07,0.14,0.03,0.28-0.1,0.41c-0.68,0.39-1.28,0.73-1.79,1
			c-0.51,0.28-0.98,0.52-1.42,0.75s-0.85,0.41-1.26,0.57c-0.41,0.16-0.85,0.3-1.32,0.43c0.79,0.05,1.57,0.16,2.34,0.31
			c0.77,0.16,1.55,0.46,2.34,0.9c1.26,0.71,2.2,1.64,2.81,2.81c0.62,1.17,0.96,2.41,1.04,3.72c0.08,1.31-0.09,2.63-0.49,3.95
			c-0.41,1.32-1,2.51-1.79,3.56c-0.24,0.31-0.55,0.65-0.94,1c-0.39,0.35-0.81,0.64-1.26,0.87c-0.45,0.22-0.91,0.33-1.4,0.33
			c-0.49,0-0.94-0.2-1.36-0.59c-0.39-0.37-0.83-0.71-1.3-1.02c-0.47-0.31-0.81-0.72-1.02-1.22c-0.26-0.58-0.54-1.14-0.83-1.69
			c-0.29-0.55-0.5-1.13-0.63-1.73c-0.16-0.81-0.29-1.57-0.41-2.26c-0.12-0.69-0.22-1.38-0.3-2.04c-0.08-0.67-0.14-1.35-0.18-2.04
			c-0.04-0.69-0.05-1.47-0.02-2.34c0-0.31,0.01-0.64,0.02-0.96c0.01-0.33,0.03-0.65,0.06-0.96c-0.13-0.16-0.13-0.3,0-0.43
			c0.05-0.65,0.1-1.3,0.14-1.93c0.04-0.63,0.08-1.27,0.14-1.93c-0.76,0.42-1.54,0.71-2.34,0.86c-0.8,0.16-1.66,0.16-2.58,0
			c-0.29-0.05-0.58-0.12-0.86-0.2C157.7,27.43,157.48,27.28,157.32,27.04z M170.92,32.43c-1.02-0.6-2.05-0.94-3.09-1.02
			c-1.04-0.08-2.12-0.12-3.24-0.12v1.89c0,1.36,0.05,2.76,0.14,4.19c0.09,1.43,0.32,2.81,0.69,4.15c0.16,0.52,0.33,1.05,0.53,1.57
			c0.2,0.52,0.45,1.02,0.77,1.49c0.73,1.1,1.46,1.78,2.16,2.04c0.71,0.26,1.36,0.23,1.97-0.1c0.6-0.33,1.15-0.87,1.63-1.63
			c0.48-0.76,0.88-1.6,1.2-2.52c0.31-0.92,0.52-1.86,0.61-2.81c0.09-0.96,0.04-1.87-0.16-2.75c-0.2-0.88-0.55-1.7-1.06-2.46
			C172.56,33.59,171.84,32.95,170.92,32.43z M165.46,20.36c-0.08,0.81-0.16,1.61-0.24,2.4c-0.08,0.79-0.14,1.57-0.2,2.36
			c0.13-0.1,0.26-0.2,0.37-0.29c0.12-0.09,0.24-0.2,0.37-0.33c1.39-1.28,2.47-2.47,3.24-3.56c0.77-1.09,1.25-2.18,1.44-3.28
			c0.18-1.1,0.09-2.28-0.28-3.54c-0.37-1.26-1-2.71-1.89-4.36c-0.26-0.5-0.52-0.99-0.77-1.47c-0.25-0.48-0.57-0.91-0.96-1.28
			c-0.13,0.45-0.2,0.95-0.22,1.51c-0.01,0.56-0.05,1.03-0.1,1.4c-0.18,1.73-0.32,3.47-0.41,5.21
			C165.74,16.85,165.62,18.6,165.46,20.36z"/>
		<path class="st0" d="M170.92,27.04c-0.05-0.21-0.01-0.35,0.12-0.41c0.13-0.06,0.26-0.03,0.39,0.1c0.05,0.11,0.15,0.18,0.29,0.24
			c0.14,0.05,0.31,0.09,0.49,0.1c0.18,0.01,0.36,0.03,0.53,0.04c0.17,0.01,0.29,0.03,0.37,0.06c1.28,0.16,2.73-0.25,4.33-1.22
			c0.08-0.94,0.16-1.89,0.24-2.83c0.08-0.94,0.17-1.9,0.28-2.87c0.03-0.42,0.07-1.02,0.12-1.81c0.05-0.79,0.1-1.66,0.16-2.61
			c0.05-0.96,0.11-1.95,0.18-2.99c0.07-1.04,0.15-2.01,0.26-2.93c0.1-0.92,0.22-1.73,0.35-2.44c0.13-0.71,0.29-1.22,0.47-1.53
			c0.24-0.24,0.48-0.3,0.75-0.2c0.68,0.39,1.2,0.93,1.55,1.61c0.35,0.68,0.7,1.35,1.04,2.01c0.89,1.78,1.51,3.34,1.87,4.68
			s0.42,2.6,0.2,3.77c-0.22,1.18-0.75,2.33-1.57,3.46c-0.83,1.13-1.97,2.37-3.44,3.74c-0.21,0.21-0.43,0.41-0.65,0.59
			c-0.22,0.18-0.45,0.37-0.69,0.55c-0.05,0.71-0.1,1.42-0.16,2.12c-0.05,0.71-0.11,1.42-0.16,2.12c0.26-0.03,0.49-0.05,0.67-0.08
			c0.18-0.03,0.37-0.06,0.57-0.1c0.2-0.04,0.43-0.09,0.69-0.16c0.26-0.07,0.59-0.16,0.98-0.29c0.84-0.29,1.65-0.67,2.44-1.16
			c0.79-0.48,1.56-0.94,2.32-1.36c0.18-0.05,0.31-0.01,0.37,0.14c0.07,0.14,0.03,0.28-0.1,0.41c-0.68,0.39-1.28,0.73-1.79,1
			c-0.51,0.28-0.98,0.52-1.42,0.75s-0.85,0.41-1.26,0.57c-0.41,0.16-0.85,0.3-1.32,0.43c0.79,0.05,1.57,0.16,2.34,0.31
			c0.77,0.16,1.55,0.46,2.34,0.9c1.26,0.71,2.2,1.64,2.81,2.81c0.62,1.17,0.96,2.41,1.04,3.72c0.08,1.31-0.09,2.63-0.49,3.95
			c-0.41,1.32-1,2.51-1.79,3.56c-0.24,0.31-0.55,0.65-0.94,1c-0.39,0.35-0.81,0.64-1.26,0.87c-0.45,0.22-0.91,0.33-1.4,0.33
			c-0.49,0-0.94-0.2-1.36-0.59c-0.39-0.37-0.83-0.71-1.3-1.02c-0.47-0.31-0.81-0.72-1.02-1.22c-0.26-0.58-0.54-1.14-0.83-1.69
			c-0.29-0.55-0.5-1.13-0.63-1.73c-0.16-0.81-0.29-1.57-0.41-2.26c-0.12-0.69-0.22-1.38-0.3-2.04c-0.08-0.67-0.14-1.35-0.18-2.04
			c-0.04-0.69-0.05-1.47-0.02-2.34c0-0.31,0.01-0.64,0.02-0.96c0.01-0.33,0.03-0.65,0.06-0.96c-0.13-0.16-0.13-0.3,0-0.43
			c0.05-0.65,0.1-1.3,0.14-1.93c0.04-0.63,0.08-1.27,0.14-1.93c-0.76,0.42-1.54,0.71-2.34,0.86c-0.8,0.16-1.66,0.16-2.58,0
			c-0.29-0.05-0.58-0.12-0.86-0.2C171.3,27.43,171.08,27.28,170.92,27.04z M184.53,32.43c-1.02-0.6-2.05-0.94-3.09-1.02
			c-1.04-0.08-2.12-0.12-3.24-0.12v1.89c0,1.36,0.05,2.76,0.14,4.19c0.09,1.43,0.32,2.81,0.69,4.15c0.16,0.52,0.33,1.05,0.53,1.57
			c0.2,0.52,0.45,1.02,0.77,1.49c0.73,1.1,1.46,1.78,2.16,2.04c0.71,0.26,1.36,0.23,1.97-0.1c0.6-0.33,1.15-0.87,1.63-1.63
			c0.48-0.76,0.88-1.6,1.2-2.52c0.31-0.92,0.52-1.86,0.61-2.81c0.09-0.96,0.04-1.87-0.16-2.75c-0.2-0.88-0.55-1.7-1.06-2.46
			C186.16,33.59,185.45,32.95,184.53,32.43z M179.06,20.36c-0.08,0.81-0.16,1.61-0.24,2.4c-0.08,0.79-0.14,1.57-0.2,2.36
			c0.13-0.1,0.26-0.2,0.37-0.29c0.12-0.09,0.24-0.2,0.37-0.33c1.39-1.28,2.47-2.47,3.24-3.56c0.77-1.09,1.25-2.18,1.44-3.28
			c0.18-1.1,0.09-2.28-0.28-3.54c-0.37-1.26-1-2.71-1.89-4.36c-0.26-0.5-0.52-0.99-0.77-1.47c-0.25-0.48-0.57-0.91-0.96-1.28
			c-0.13,0.45-0.2,0.95-0.22,1.51c-0.01,0.56-0.05,1.03-0.1,1.4c-0.18,1.73-0.32,3.47-0.41,5.21
			C179.35,16.85,179.22,18.6,179.06,20.36z"/>
		<path class="st0" d="M185.95,30.19c-0.1-0.16-0.1-0.3,0-0.41c0.11-0.12,0.24-0.14,0.39-0.06c0.39,0.26,0.92,0.35,1.57,0.28
			s1.32-0.22,2.01-0.43c0.34-0.65,0.75-1.26,1.22-1.83c0.47-0.56,0.89-1.02,1.26-1.36c0.16-0.16,0.36-0.3,0.61-0.43
			c0.25-0.13,0.51-0.22,0.79-0.28c0.28-0.05,0.54-0.05,0.79,0.02c0.25,0.07,0.45,0.22,0.61,0.45c0.13,0.21,0.17,0.43,0.12,0.67
			c-0.05,0.24-0.15,0.47-0.29,0.69c-0.14,0.22-0.31,0.43-0.49,0.61c-0.18,0.18-0.33,0.31-0.43,0.39c-0.37,0.29-0.87,0.59-1.49,0.9
			c-0.63,0.31-1.31,0.59-2.04,0.83c-0.26,0.55-0.35,1.05-0.28,1.49c0.05,0.39,0.29,0.64,0.73,0.75s0.91,0.13,1.44,0.08
			c0.52-0.05,1.04-0.14,1.55-0.28c0.51-0.13,0.88-0.24,1.12-0.31l2.36-0.83c0.21-0.05,0.34,0.01,0.39,0.2
			c0.05,0.18-0.03,0.31-0.24,0.39c-0.53,0.21-1.04,0.42-1.55,0.63c-0.51,0.21-1.03,0.42-1.55,0.63c-0.42,0.13-0.85,0.25-1.28,0.35
			c-0.43,0.1-0.87,0.17-1.32,0.2c-0.68,0-1.23-0.07-1.63-0.22c-0.41-0.14-0.69-0.35-0.86-0.63c-0.17-0.28-0.25-0.6-0.24-0.96
			c0.01-0.37,0.1-0.76,0.26-1.18c-0.68,0.16-1.32,0.22-1.93,0.2C186.92,30.71,186.39,30.53,185.95,30.19z M193.06,27.28
			c-0.24,0.21-0.51,0.46-0.83,0.75c-0.31,0.29-0.62,0.62-0.9,0.98l1.1-0.55c0.26-0.16,0.46-0.29,0.61-0.41
			c0.14-0.12,0.27-0.24,0.37-0.35c0.1-0.12,0.21-0.25,0.31-0.39c0.1-0.14,0.25-0.33,0.43-0.57c-0.16-0.05-0.33-0.02-0.51,0.1
			C193.47,26.94,193.27,27.09,193.06,27.28z M194.32,26.84l0.04,0.04L194.32,26.84z"/>
		<path class="st0" d="M196.96,30.19c-0.1-0.16-0.1-0.3,0-0.41c0.11-0.12,0.24-0.14,0.39-0.06c0.39,0.26,0.92,0.35,1.57,0.28
			c0.65-0.08,1.32-0.22,2.01-0.43c0.34-0.65,0.75-1.26,1.22-1.83c0.47-0.56,0.89-1.02,1.26-1.36c0.16-0.16,0.36-0.3,0.61-0.43
			c0.25-0.13,0.51-0.22,0.79-0.28c0.28-0.05,0.54-0.05,0.79,0.02c0.25,0.07,0.45,0.22,0.61,0.45c0.13,0.21,0.17,0.43,0.12,0.67
			c-0.05,0.24-0.15,0.47-0.29,0.69c-0.14,0.22-0.31,0.43-0.49,0.61c-0.18,0.18-0.33,0.31-0.43,0.39c-0.37,0.29-0.87,0.59-1.49,0.9
			c-0.63,0.31-1.31,0.59-2.04,0.83c-0.26,0.55-0.35,1.05-0.28,1.49c0.05,0.39,0.29,0.64,0.73,0.75s0.91,0.13,1.44,0.08
			c0.52-0.05,1.04-0.14,1.55-0.28c0.51-0.13,0.88-0.24,1.12-0.31l2.36-0.83c0.21-0.05,0.34,0.01,0.39,0.2
			c0.05,0.18-0.03,0.31-0.24,0.39c-0.53,0.21-1.04,0.42-1.55,0.63c-0.51,0.21-1.03,0.42-1.55,0.63c-0.42,0.13-0.85,0.25-1.28,0.35
			c-0.43,0.1-0.87,0.17-1.32,0.2c-0.68,0-1.23-0.07-1.63-0.22c-0.41-0.14-0.69-0.35-0.86-0.63c-0.17-0.28-0.25-0.6-0.24-0.96
			c0.01-0.37,0.1-0.76,0.26-1.18c-0.68,0.16-1.32,0.22-1.93,0.2C197.93,30.71,197.4,30.53,196.96,30.19z M204.07,27.28
			c-0.24,0.21-0.51,0.46-0.83,0.75c-0.31,0.29-0.62,0.62-0.9,0.98l1.1-0.55c0.26-0.16,0.46-0.29,0.61-0.41
			c0.14-0.12,0.27-0.24,0.37-0.35c0.1-0.12,0.21-0.25,0.31-0.39c0.1-0.14,0.25-0.33,0.43-0.57c-0.16-0.05-0.33-0.02-0.51,0.1
			C204.48,26.94,204.28,27.09,204.07,27.28z M205.33,26.84l0.04,0.04L205.33,26.84z"/>
	</g>
</g>
<g id="Copy_of_Copy_of_Layer_5">
	
		<text transform="matrix(1 0 0 1 -45.6425 -182.4432)" style="fill:#694C3D;stroke:#694C3D;stroke-width:0.7308;stroke-miterlimit:10; font-family:'SweetlyBroken'; font-size:54.3806px;">Star Buzz  Coffee</text>
</g>
</svg>
